<svg width="800" height="800" viewBox="0 0 800 800" fill="none" xmlns="http://www.w3.org/2000/svg">
<path fill-rule="evenodd" clip-rule="evenodd" d="M41.6665 266.667C41.6665 142.403 142.402 41.6666 266.666 41.6666H533.333C657.596 41.6666 758.333 142.403 758.333 266.667V533.333C758.333 657.597 657.596 758.333 533.333 758.333H266.666C142.402 758.333 41.6665 657.597 41.6665 533.333V266.667Z" fill="white"/>
<path fill-rule="evenodd" clip-rule="evenodd" d="M400 233.581C413.807 233.581 425 244.774 425 258.581V541.423C425 555.23 413.807 566.423 400 566.423C386.19 566.423 375 555.23 375 541.423V258.581C375 244.774 386.193 233.581 400 233.581Z" fill="black"/>
<path fill-rule="evenodd" clip-rule="evenodd" d="M566.667 400C566.667 413.807 555.473 425 541.667 425H258.825C245.018 425 233.825 413.807 233.825 400C233.826 386.19 245.018 375 258.826 375H541.667C555.473 375 566.667 386.193 566.667 400Z" fill="black"/>
</svg>
