<svg width="800" height="800" viewBox="0 0 800 800" fill="none" xmlns="http://www.w3.org/2000/svg">
<path d="M41.6665 241.667C41.6665 131.21 131.21 41.6666 241.666 41.6666H558.333C668.79 41.6666 758.333 131.21 758.333 241.667V558.333C758.333 668.79 668.79 758.333 558.333 758.333H241.666C131.21 758.333 41.6665 668.79 41.6665 558.333V241.667Z" fill="white"/>
<path fill-rule="evenodd" clip-rule="evenodd" d="M400.827 210.783C411.927 210.783 420.923 219.782 420.923 230.882V560.937C420.923 572.037 411.923 581.033 400.823 581.033C389.723 581.033 380.727 572.037 380.727 560.937V230.882C380.727 219.781 389.727 210.783 400.827 210.783Z" fill="black"/>
<path fill-rule="evenodd" clip-rule="evenodd" d="M594.953 400.147C594.953 411.843 585.47 421.327 573.773 421.327H225.955C214.257 421.327 204.774 411.843 204.774 400.143C204.774 388.447 214.257 378.963 225.955 378.963L573.773 378.967C585.47 378.967 594.953 388.45 594.953 400.147Z" fill="black"/>
</svg>
