<svg width="800" height="800" viewBox="0 0 800 800" fill="none" xmlns="http://www.w3.org/2000/svg">
<path d="M41.6665 241.667C41.6665 131.21 131.21 41.6666 241.666 41.6666H558.333C668.79 41.6666 758.333 131.21 758.333 241.667V558.333C758.333 668.79 668.79 758.333 558.333 758.333H241.666C131.21 758.333 41.6665 668.79 41.6665 558.333V241.667Z" fill="white"/>
<path fill-rule="evenodd" clip-rule="evenodd" d="M600.61 272.522C608.417 280.328 608.417 292.985 600.61 300.792L389.537 511.867C360.913 540.49 314.504 540.49 285.88 511.867L199.19 425.177C191.383 417.37 191.383 404.713 199.19 396.907C206.997 389.1 219.654 389.1 227.46 396.907L314.15 483.593C327.161 496.607 348.257 496.607 361.267 483.593L572.34 272.522C580.147 264.715 592.803 264.715 600.61 272.522Z" fill="black"/>
</svg>
