<svg width="800" height="800" viewBox="0 0 800 800" fill="none" xmlns="http://www.w3.org/2000/svg">
<path d="M41.6665 241.667C41.6665 131.21 131.21 41.6666 241.666 41.6666H558.333C668.79 41.6666 758.333 131.21 758.333 241.667V558.333C758.333 668.79 668.79 758.333 558.333 758.333H241.666C131.21 758.333 41.6665 668.79 41.6665 558.333V241.667Z" fill="white"/>
<path fill-rule="evenodd" clip-rule="evenodd" d="M239.432 239.433C247.565 231.3 260.751 231.3 268.883 239.433L560.566 531.117C568.7 539.25 568.7 552.433 560.566 560.567C552.433 568.7 539.25 568.7 531.116 560.567L239.432 268.884C231.3 260.751 231.3 247.565 239.432 239.433Z" fill="black"/>
<path fill-rule="evenodd" clip-rule="evenodd" d="M560.566 239.433C568.7 247.566 568.7 260.751 560.566 268.884L268.883 560.567C260.75 568.7 247.565 568.7 239.432 560.567C231.3 552.433 231.3 539.25 239.433 531.117L531.116 239.433C539.25 231.3 552.433 231.3 560.566 239.433Z" fill="black"/>
</svg>
