<svg width="800" height="800" viewBox="0 0 800 800" fill="none" xmlns="http://www.w3.org/2000/svg">
<path d="M702.06 174.74L631.35 104.029C592.296 64.9763 528.98 64.9763 489.926 104.029L123.552 470.403C107.443 486.513 97.3171 507.64 94.8505 530.287L81.7168 650.88C77.1041 693.23 112.857 728.983 155.209 724.37L275.8 711.237C298.448 708.77 319.575 698.647 335.683 682.537L702.06 316.161C741.113 277.109 741.113 213.792 702.06 174.74Z" fill="white"/>
<path d="M702.06 174.74L631.35 104.029C592.296 64.9763 528.98 64.9763 489.926 104.029L412.146 181.811L624.276 393.943L702.06 316.161C741.113 277.109 741.113 213.792 702.06 174.74Z" fill="#434343"/>
</svg>
